<?xml version="1.0" encoding="UTF-8"?><svg id="Layer_1" xmlns="http://www.w3.org/2000/svg" viewBox="0 0 166 166"><defs><style>.cls-1{fill:#a1e1d3;}.cls-1,.cls-2,.cls-3,.cls-4,.cls-5,.cls-6,.cls-7,.cls-8,.cls-9{stroke-width:0px;}.cls-2{fill:#67a497;}.cls-3{fill:#e7eef9;}.cls-10{font-family:QuicksandLight-Regular, Quicksand;font-size:20.31px;}.cls-10,.cls-11{fill:#fff;}.cls-4{fill:#99c3ba;}.cls-5{fill:#d0f0e9;}.cls-6{fill:#cce1dc;}.cls-12{letter-spacing:-.05em;}.cls-7{fill:#72d2be;}.cls-8{fill:#348675;}.cls-9{fill:#016852;}.cls-11{font-family:QuicksandBold-Regular, Quicksand;font-size:8.96px;letter-spacing:.3em;}</style></defs><rect class="cls-9" width="166" height="166"/><polygon class="cls-5" points="105 40.65 87.98 40.65 87.98 25.52 78.52 25.52 78.52 40.65 61.5 40.65 61.5 50.11 78.52 50.11 78.52 95.5 87.98 95.5 87.98 50.11 105 50.11 105 40.65"/><path class="cls-4" d="M22.91,71.37c5.14,18.28,8.61,37.03,10.37,55.94,17.56,4.11,35.45,10.65,49.82,21.91,0-17.54,0-58.85,0-58.85,0,0-9.73-8.09-22.66-12.68-12.03-4.27-24.77-6.7-37.54-6.32Z"/><path class="cls-6" d="M83.1,88.57s-17.64-18.14-54.83-19.59l-1.44-6.11s43.41,2.59,56.27,25.7Z"/><path class="cls-3" d="M83.1,85.35s-14.32-21.29-51.14-25l-1.17-5.86s35.16,3.32,52.32,30.86Z"/><path class="cls-2" d="M143.3,71.37c-5.14,18.28-8.61,37.03-10.37,55.94-17.56,4.11-35.45,10.65-49.82,21.91,0-17.54,0-58.85,0-58.85,0,0,9.73-8.09,22.66-12.68,12.03-4.27,24.77-6.7,37.54-6.32Z"/><path class="cls-6" d="M83.1,88.57s17.64-18.14,54.83-19.59l1.44-6.11s-43.41,2.59-56.27,25.7Z"/><path class="cls-3" d="M83.1,85.35s14.32-21.29,51.14-25l1.17-5.86s-35.16,3.32-52.32,30.86Z"/><path class="cls-1" d="M50.9,51.16c-2.72,0-4.93-2.21-4.93-4.93s2.21-4.93,4.93-4.93,4.93,2.21,4.93,4.93-2.21,4.93-4.93,4.93ZM50.9,42.65c-1.97,0-3.58,1.61-3.58,3.58s1.61,3.58,3.58,3.58,3.58-1.61,3.58-3.58-1.61-3.58-3.58-3.58Z"/><path class="cls-2" d="M37.69,50.66c-1.4,0-2.54-1.14-2.54-2.54s1.14-2.54,2.54-2.54,2.54,1.14,2.54,2.54-1.14,2.54-2.54,2.54ZM37.69,46.94c-.66,0-1.19.53-1.19,1.19s.53,1.19,1.19,1.19,1.19-.53,1.19-1.19-.53-1.19-1.19-1.19Z"/><path class="cls-7" d="M156.54,46.92l-2.57-1.1c-.37-.16-.63-.48-.71-.87l-.55-2.74c-.2-.98-1.44-1.31-2.1-.56l-1.84,2.1c-.26.3-.66.45-1.05.41l-2.78-.32c-1-.12-1.69.96-1.18,1.82l1.43,2.4c.2.34.23.76.06,1.12l-1.17,2.54c-.42.91.39,1.91,1.37,1.68l2.73-.62c.39-.09.8.02,1.09.29l2.06,1.89c.74.68,1.93.22,2.03-.78l.25-2.78c.04-.4.26-.75.61-.95l2.44-1.37c.87-.49.8-1.77-.12-2.17Z"/><path class="cls-7" d="M74.49,58.4l-2.07.41c-.29.06-.6-.03-.81-.24l-1.51-1.47c-.54-.53-1.45-.21-1.54.54l-.25,2.09c-.04.3-.22.56-.48.7l-1.87.98c-.67.35-.65,1.32.04,1.64l1.91.89c.27.13.47.38.52.67l.35,2.08c.13.75,1.05,1.02,1.57.47l1.43-1.54c.2-.22.5-.33.8-.28l2.08.31c.75.11,1.3-.69.93-1.35l-1.03-1.84c-.15-.26-.15-.58-.02-.85l.93-1.89c.34-.68-.25-1.45-.99-1.3Z"/><path class="cls-1" d="M137.94,19.94l-2.69-1.67c-.38-.24-.62-.65-.65-1.1l-.15-3.16c-.05-1.14-1.38-1.72-2.25-.98l-2.42,2.04c-.35.29-.81.39-1.25.27l-3.05-.84c-1.1-.3-2.06.79-1.63,1.84l1.19,2.93c.17.42.12.89-.12,1.27l-1.74,2.65c-.62.95.11,2.2,1.24,2.12l3.16-.23c.45-.03.89.16,1.17.51l1.98,2.47c.71.89,2.13.58,2.4-.53l.76-3.07c.11-.44.43-.79.85-.95l2.96-1.12c1.06-.4,1.21-1.85.24-2.45Z"/><path class="cls-8" d="M102.28,59.36c0,.68-.55,1.23-1.23,1.23s-1.23-.55-1.23-1.23.55-1.23,1.23-1.23,1.23.55,1.23,1.23Z"/><path class="cls-3" d="M39.13,28.74c0,.68-.55,1.23-1.23,1.23s-1.23-.55-1.23-1.23.55-1.23,1.23-1.23,1.23.55,1.23,1.23Z"/><circle class="cls-3" cx="105.09" cy="22.69" r="2.53"/><circle class="cls-1" cx="65.07" cy="33.81" r="1.96"/><text class="cls-10" transform="translate(35.2 112.48)"><tspan x="0" y="0">FI</tspan><tspan class="cls-12" x="18.48" y="0">H</tspan><tspan x="31.86" y="0">IRANA</tspan></text><text class="cls-11" transform="translate(66.23 126.32)"><tspan x="0" y="0">CEIM</tspan></text></svg>